<?xml version="1.0" encoding="UTF-8" standalone="no"?>
<!-- Created with Inkscape (http://www.inkscape.org/) -->

<svg
   width="1000mm"
   height="281.79599mm"
   viewBox="0 0 1000 281.79599"
   version="1.1"
   id="svg5"
   xml:space="preserve"
   xmlns="http://www.w3.org/2000/svg"
   xmlns:svg="http://www.w3.org/2000/svg"><defs
     id="defs2" /><g
     id="layer1"><g
       id="g2285"
       transform="matrix(1.3830966,0,0,1.3830966,578.34935,-27.92398)"><path
         id="rect2378"
         style="fill:#1a9859;fill-opacity:1;stroke-width:0.202456;paint-order:stroke fill markers"
         d="m -415.50393,108.30191 c -1.46887,0 -2.6515,1.18264 -2.6515,2.6515 0,1.46887 1.18263,2.65098 2.6515,2.65098 h 216.68549 c 1.46887,0 2.6515,-1.18211 2.6515,-2.65098 0,-1.46886 -1.18263,-2.6515 -2.6515,-2.6515 z m 0,12.80068 c -1.46887,0 -2.6515,1.18264 -2.6515,2.6515 0,1.46887 1.18263,2.65098 2.6515,2.65098 h 216.68549 c 1.46887,0 2.6515,-1.18211 2.6515,-2.65098 0,-1.46886 -1.18263,-2.6515 -2.6515,-2.6515 z m 0,12.80068 c -1.46887,0 -2.6515,1.18212 -2.6515,2.65098 0,1.46886 1.18263,2.6515 2.6515,2.6515 h 216.68549 c 1.46887,0 2.6515,-1.18264 2.6515,-2.6515 0,-1.46886 -1.18263,-2.65098 -2.6515,-2.65098 z m 0,12.80016 c -1.46887,0 -2.6515,1.18263 -2.6515,2.6515 0,1.46886 1.18263,2.6515 2.6515,2.6515 h 216.68549 c 1.46887,0 2.6515,-1.18264 2.6515,-2.6515 0,-1.46887 -1.18263,-2.6515 -2.6515,-2.6515 z m 0,12.80068 c -1.46887,0 -2.6515,1.18263 -2.6515,2.6515 0,1.46886 1.18263,2.6515 2.6515,2.6515 h 216.68549 c 1.46887,0 2.6515,-1.18264 2.6515,-2.6515 0,-1.46887 -1.18263,-2.6515 -2.6515,-2.6515 z" /><path
         id="rect1967"
         style="fill:#f1660b;fill-opacity:1;stroke-width:0.202664;paint-order:stroke fill markers"
         d="M -274.24889,20.189465 -382.0821,178.05993 c -3.82609,5.6015 -7.20461,9.21927 -12.79664,12.10107 -4.54369,2.34156 -9.69457,2.57246 -19.97552,2.57246 v 31.19861 h 90.0038 v -31.19861 c -5.36768,0 -15.36392,-0.4242 -15.36392,-6.99183 0,-1.83869 1.41195,-4.22329 1.97714,-5.05602 L -265.26495,73.171761 V 108.3014 h 42.80204 l -0.15864,-88.111418 h -6.68332 l 5.2e-4,-5.17e-4 z m 8.98394,144.617525 v 10.5761 c 0,6.81576 -2.97655,12.55865 -8.2889,14.70402 -5.58741,2.25643 -12.59764,2.64635 -14.95257,2.64635 v 31.19861 h 89.40591 v -31.19861 c -2.35493,0 -9.36516,-0.38992 -14.95257,-2.64635 -5.31235,-2.14537 -8.27662,-7.88827 -8.2889,-14.70402 l -0.0191,-10.5761 z" /></g><path
       id="rect3417"
       style="fill:#1a9859;fill-opacity:1;stroke-width:0.587939;paint-order:stroke fill markers"
       d="m 869.89993,107.86461 -4.1875,7.56029 h 29.4502 l 4.189,-7.56029 z m 93.6974,11.48773 c -25.1895,0 -49.0582,13.14531 -56.6004,41.89167 -7.5423,28.74643 9.4285,41.89162 34.6179,41.89162 25.1895,0 49.117,-13.36968 56.6004,-41.89162 7.48337,-28.52196 -9.4285,-41.89167 -34.6179,-41.89167 z m -343.35772,1.25974 c -23.18894,0 -45.37758,12.92018 -52.89652,41.57758 -8.26605,31.50485 7.89039,41.57589 31.07933,41.57589 11.55828,0 19.99532,-2.23382 27.11835,-6.82621 7.60516,-4.9034 13.47314,-12.70055 18.05229,-26.03703 h -12.56042 c -1.66929,5.1266 -4.60893,9.84014 -7.94715,13.41642 -4.70616,5.04165 -10.74198,7.9786 -15.94607,7.9786 -8.59835,0 -15.42701,-4.32213 -8.8072,-29.55271 6.15819,-23.47115 13.82659,-29.55269 24.31491,-29.55269 4.25794,0 6.97383,1.13161 9.2468,5.1352 1.86975,3.29329 1.57987,10.26922 1.47711,16.24359 l 14.54151,-0.13191 8.52463,-32.49051 h -13.12185 l -3.28788,4.34242 c -4.72394,-3.75593 -11.37664,-5.67876 -19.78787,-5.67876 z m -250.72644,1.40144 -37.2382,61.09754 c -3.11911,5.06482 -6.57284,6.01242 -7.69738,6.01242 h -4.4483 l -3.11226,11.86209 h 35.10775 l 3.11228,-11.86209 h -7.38452 c -1.82104,0 -1.8908,-1.4172 -0.18192,-4.36854 l 5.32171,-9.1912 h 20.67073 l 0.37387,9.19608 c 0.0612,3.57497 -1.17706,4.36366 -2.68794,4.36366 h -7.75233 l -3.11227,11.86209 h 47.39127 l 3.11227,-11.86209 h -6.36075 c -2.86276,0 -3.46975,-2.29332 -3.74805,-6.01242 l -2.38945,-61.09754 z m 47.61436,0 -7.85929,29.95467 h 11.86207 c 0,0 2.30503,-9.76493 7.51543,-13.63782 4.04867,-3.00924 8.75822,-3.77934 12.43056,-3.77934 h 0.74213 L 428.51221,185.266 c -0.35702,1.36055 -0.94744,3.4115 -3.80365,3.4115 h -9.75266 l -3.22892,12.30646 h 51.77945 l 3.22892,-12.30646 h -9.7527 c -2.85636,0 -2.3705,-2.05095 -2.01348,-3.4115 l 13.30623,-50.71497 h 0.74221 c 3.67235,0 7.97779,0.7701 10.44727,3.77934 2.73104,3.32803 1.03546,10.99142 0.50369,13.08602 l -0.145,0.5518 h 11.86206 l 7.85936,-29.95467 z m 106.09638,0 -37.23823,61.09754 c -3.1191,5.06482 -6.57442,6.01242 -7.69904,6.01242 H 473.84 l -3.11227,11.86209 h 35.10777 l 3.1123,-11.86209 h -7.38617 c -1.82105,0 -1.88915,-1.4172 -0.18048,-4.36854 l 5.32169,-9.1912 h 20.67079 l 0.37386,9.19608 c 0.0612,3.57497 -1.17707,4.36366 -2.68795,4.36366 h -7.75233 l -3.11227,11.86209 h 47.39136 l 3.11228,-11.86209 h -6.36073 c -2.86271,0 -3.46974,-2.29332 -3.74807,-6.01242 l -2.38947,-61.09754 z m 162.70977,0 -37.23816,61.09754 c -3.11911,5.06482 -6.57448,6.01242 -7.69902,6.01242 h -4.44664 l -3.11234,11.86209 h 35.10779 l 3.11228,-11.86209 h -7.38612 c -1.82106,0 -1.88918,-1.4172 -0.18049,-4.36854 l 5.32165,-9.1912 h 20.67076 l 0.37384,9.19608 c 0.0612,3.57497 -1.17705,4.36366 -2.68792,4.36366 h -7.75233 l -3.11228,11.86209 h 47.39139 l 3.1123,-11.86209 h -6.36075 c -2.86271,0 -3.46975,-2.29332 -3.74807,-6.01242 l -2.3894,-61.09754 z m 63.25257,0 -3.1123,11.86207 h 6.80832 c 1.57536,0 2.97298,1.30519 2.10139,4.62732 l -12.43334,47.3881 c -0.38672,1.47392 -1.17376,3.23247 -3.79577,3.23247 h -7.17615 l -3.11228,11.86209 h 37.06574 l 8.1e-4,-0.002 h 6.40309 c 30.29159,-1.4e-4 48.52237,-13.10733 55.44297,-39.48443 6.9207,-26.37708 -4.4322,-39.48419 -34.72375,-39.48436 h -4.32453 -15.41516 z m 116.10458,0 -37.2387,61.09914 c -3.1191,5.06484 -6.5724,6.01082 -7.6969,6.01082 h -4.4483 l -3.1123,11.86209 h 35.1078 l 3.1122,-11.86209 h -7.3845 c -1.821,0 -1.8908,-1.4172 -0.1822,-4.36854 l 5.3217,-9.1912 h 20.6708 l 0.3738,9.19608 c 0.061,3.57497 -1.1767,4.36366 -2.6879,4.36366 h -7.7523 l -3.1123,11.86209 h 47.3914 l 3.1123,-11.86209 h -6.3607 c -2.8628,0 -3.4703,-2.2917 -3.7485,-6.01082 l -2.3891,-61.09914 z m 95.0058,9.9187 c 8.255,0 13.919,3.91594 7.2558,29.31179 -6.6631,25.39585 -14.4401,29.53314 -22.6951,29.53314 -8.255,0 -13.8729,-4.09121 -7.1977,-29.53314 6.6752,-25.44188 14.3821,-29.31179 22.637,-29.31179 z m -177.64192,1.94337 h 2.56348 4.78352 c 10.21773,0 11.88809,9.16898 7.04646,27.62229 -4.84169,18.45343 -11.49191,27.62398 -21.54154,27.62398 h -7.34707 z m -410.3444,8.32689 0.88115,21.72223 H 359.7327 Z m 153.71072,0 0.88117,21.72223 h -13.45878 z m 162.70979,0 0.88117,21.72223 h -13.45876 z m 179.35701,0 0.8812,21.72223 h -13.4588 z" /></g></svg>
